<svg xmlns="http://www.w3.org/2000/svg" width="492.5" height="492.5" viewBox="0 0 492.5 492.5">
  <defs>
    <style>
      .cls-1 {
        fill-rule: evenodd;
        fill: #fdd01c;
      }
    </style>
  </defs>
  <path class="cls-1" d="M57.764,3.764H442.236a54,54,0,0,1,54,54V442.236a54,54,0,0,1-54,54H57.764a54,54,0,0,1-54-54V57.764A54,54,0,0,1,57.764,3.764Zm47.608,199.362,0,0.811V305.365a14.141,14.141,0,0,0,.812,4.869,9.6,9.6,0,0,0,2.434,3.246l97.371,106.3a4.652,4.652,0,0,0,2.434.812,5.84,5.84,0,0,0,2.434-.812L389.37,204.749a28.67,28.67,0,0,0,2.435-4.869,16.085,16.085,0,0,0,.811-4.057V83.035s0.052-1.606-.811-1.623c-1.219-.024-2.435,1.623-2.435,1.623L201.932,316.725a2.284,2.284,0,0,1-1.623.812,2.877,2.877,0,0,1-2.435-.812L108.618,203.937s-1.1-1.634-1.623-1.622A1.562,1.562,0,0,0,105.372,203.937Z" transform="translate(-3.75 -3.75)"/>
</svg>
