<svg xmlns="http://www.w3.org/2000/svg" width="1654.846" height="1964.215" viewBox="0 0 1654.846 1964.215">
  <defs>
    <style>
      .cls-1 {
        fill-rule: evenodd;
        fill: #fdd01c;
      }
    </style>
  </defs>
  <path id="check" class="cls-1" d="M172.815,736.555l1.543,583.415a70.36,70.36,0,0,0,3.087,21.61c3.436,10.69,10.8,21.61,10.8,21.61l557.18,605.03s10.74,13.81,21.609,13.89c11.279,0.37,16.977-12.35,16.977-12.35L1808.86,735.011s7.41-10.036,12.34-29.325c3.86-15.081,4.63-33.956,4.63-33.956l1.55-638.982s0.91-10.781-4.63-13.891c-6.52-3.742-12.35,4.63-12.35,4.63L731.539,1377.08s-6.117,10.5-15.435,10.8c-8.392,0-15.434-10.8-15.434-10.8L191.336,735.011a12.671,12.671,0,0,0-12.348-6.173C172.58,729.328,172.815,736.555,172.815,736.555Z" transform="translate(-172.594 -17.875)"/>
</svg>
