<svg xmlns="http://www.w3.org/2000/svg" width="1736" height="822" viewBox="0 0 1736 822">
  <defs>
    <style>
      .cls-1 {
        fill-rule: evenodd;
        fill: #fdd01c;
      }
    </style>
  </defs>
  <path id="Shape_3_copy" data-name="Shape 3 copy" class="cls-1" d="M402.826,4.636l262.326,456H740.96L724.6,432.818l118.892-70.363-63.264-37.637-87.26,51.818L579.528,179.182,1017.47,432.818l-15.82,27.818h73.08l260.15-456L895.847,258.818l62.173,36.546L1166.9,174.818,1049.64,376.091ZM758.412,623.182L870.76,817.364,981.471,623.182H907.3L870.76,687l-36.541-63.818H758.412Zm-477.163-140.8,93.48,121.777a3.54,3.54,0,0,0,1.571,1.571,10.74,10.74,0,0,0,3.142.786h18.067a2.179,2.179,0,0,0,1.571-.786,6.019,6.019,0,0,0,.786-2.357V481.6a3.241,3.241,0,0,0-.786-1.572,3.887,3.887,0,0,0-1.571-.785H379.442a4.145,4.145,0,0,0-2.357.785,3.665,3.665,0,0,0-.785,2.357l0.785,84.851L311.1,481.6a13.494,13.494,0,0,0-2.356-1.572,10.207,10.207,0,0,0-2.357-.785H282.034a1.937,1.937,0,0,0-1.571.785C280.062,480.831,281.249,482.385,281.249,482.385ZM414.791,603.376l93.48-120.991a13.486,13.486,0,0,1,2.357-1.571,10.237,10.237,0,0,1,2.356-.786h18.068a3.606,3.606,0,0,1,1.571.786,3.44,3.44,0,0,1,.785,1.571V604.947a10.594,10.594,0,0,1-.785,1.572,2.38,2.38,0,0,1-.786.785H513.77a30.375,30.375,0,0,1-3.142-.785,5.157,5.157,0,0,1-1.572-.786l-32.992-42.425-32.208,41.639a5.255,5.255,0,0,1-1.571,1.572,7.274,7.274,0,0,1-2.356.785H416.362s-1.959-.578-2.356-1.571C413.617,604.762,414.791,603.376,414.791,603.376Zm146.9-123.348h18.853a3.651,3.651,0,0,1,1.571.786,3.405,3.405,0,0,1,.786,1.571v101.35h51.06a5.514,5.514,0,0,1,1.571,1.571,1.9,1.9,0,0,1,0,1.571L620.6,604.947a14.8,14.8,0,0,1-2.357,1.572,9.166,9.166,0,0,1-2.357.785H563.259a8.324,8.324,0,0,1-2.357-.785,4.676,4.676,0,0,1-1.571-1.572V482.385a3.016,3.016,0,0,1,.786-1.571A4.5,4.5,0,0,1,561.688,480.028Zm87.981,2.357V604.947a3.29,3.29,0,0,0,.785,1.572,3.824,3.824,0,0,0,1.571.785h18.853a3.5,3.5,0,0,0,1.572-.785,3.553,3.553,0,0,0,.785-1.572V554.665h51.846v50.282a9.584,9.584,0,0,0,.786,1.572,2.775,2.775,0,0,0,.785.785h19.639a3.562,3.562,0,0,0,1.571-.785,3.481,3.481,0,0,0,.785-1.572V482.385a3.278,3.278,0,0,0-.785-1.571,3.826,3.826,0,0,0-1.571-.786H728.223a5.836,5.836,0,0,0-2.356.786,2.262,2.262,0,0,0-.786,1.571v49.5H673.235v-49.5a10.727,10.727,0,0,0-.785-1.571,2.357,2.357,0,0,0-.786-0.786H652.025a2.833,2.833,0,0,0-1.571.786A10.54,10.54,0,0,0,649.669,482.385ZM882.19,604.947a10.579,10.579,0,0,1-.786,1.572,2.378,2.378,0,0,1-.785.785H861.766s-1.3-.361-2.357-0.785a10.89,10.89,0,0,1-1.571-.786l-32.993-42.425-31.422,41.639a5.162,5.162,0,0,1-1.571,1.572,16.75,16.75,0,0,1-2.356.785H764.358a2.89,2.89,0,0,1-1.571-1.571,3.906,3.906,0,0,1,.786-2.357L857.052,481.6a8.43,8.43,0,0,1,1.571-.786c0.9-.362,2.357-0.786,2.357-0.786h18.853a10.241,10.241,0,0,1,1.571.786,2.46,2.46,0,0,1,.786.786V604.947Zm61.272-62.066L897.9,602.59a6.131,6.131,0,0,0-1.572,2.357,1.8,1.8,0,0,0,.786,1.572h25.137s1.411-.408,2.357-0.786a8.832,8.832,0,0,0,1.571-.786l32.207-41.639L990.6,604.162a4.726,4.726,0,0,0,1.571,1.571,8.178,8.178,0,0,0,2.356.786h24.348a5.366,5.366,0,0,0,2.36-.786,1.391,1.391,0,0,0,0-1.571L974.1,542.881,1021.23,481.6a2.086,2.086,0,0,0,0-1.572,2.729,2.729,0,0,0-1.57-.785H994.522a10.205,10.205,0,0,0-2.356.785A4.258,4.258,0,0,0,990.6,481.6l-32.208,41.639L926.966,481.6a5.2,5.2,0,0,0-1.571-1.572,7.334,7.334,0,0,0-2.357-.785H897.9a2.783,2.783,0,0,0-1.572.785,2.037,2.037,0,0,0,0,1.572Zm112.328-60.5,94.27,122.562a9.763,9.763,0,0,0,1.57.786c1.01,0.405,2.36.786,2.36,0.786h18.07a5.73,5.73,0,0,0,1.57-.786,5.411,5.411,0,0,0,.78-1.571V519.311l65.99,84.851a8.276,8.276,0,0,0,2.35,1.571,13.121,13.121,0,0,0,3.15.786h19.63V481.6a10.817,10.817,0,0,0-.78-1.572,2.279,2.279,0,0,0-.79-0.785h-18.85a3.974,3.974,0,0,0-1.57.785,3.294,3.294,0,0,0-.79,1.572l-0.78,84.85-65.2-84.85a13.281,13.281,0,0,0-2.36-1.572,10.143,10.143,0,0,0-2.35-.785h-18.07a3.671,3.671,0,0,0-1.57.785,3.4,3.4,0,0,0-.79,1.572v84.85l-65.2-84.065a21.533,21.533,0,0,0-3.14-2.357,6.291,6.291,0,0,0-2.36-.785h-23.56a1.859,1.859,0,0,0-1.58.785A4.666,4.666,0,0,0,1055.79,482.385Zm235.67,0V604.947a3.425,3.425,0,0,0,.78,1.572,3.672,3.672,0,0,0,1.57.785h19.64a2.34,2.34,0,0,0,1.57-.785,5.749,5.749,0,0,0,.79-2.357V483.171a10.052,10.052,0,0,0-.79-3.143c-0.6-1.006-2.35-.785-2.35-0.785H1294.6a3.819,3.819,0,0,0-2.36.785A3.952,3.952,0,0,0,1291.46,482.385ZM1365.3,520.1v84.065a5.528,5.528,0,0,1-.79,2.357,2.464,2.464,0,0,1-1.57.785H1343.3a1.977,1.977,0,0,1-1.57-.785,6.82,6.82,0,0,1-.78-2.357V483.171a6.355,6.355,0,0,1,.78-3.143,2.861,2.861,0,0,1,2.36-.785h16.5a10.022,10.022,0,0,1,3.92.785,6.171,6.171,0,0,1,2.36,2.357l65.2,84.065V482.385a5.7,5.7,0,0,1,.79-2.357,2.278,2.278,0,0,1,1.57-.785h18.06a3.637,3.637,0,0,1,2.36.785,4.235,4.235,0,0,1,.79,2.357V604.162a14.42,14.42,0,0,1-.79,2.357,2.052,2.052,0,0,1-1.57.785H1436a8.758,8.758,0,0,1-2.36-.785,16,16,0,0,1-2.36-1.572Zm-330.71,65.209v19.641a2.54,2.54,0,0,0,.78,1.572,5.476,5.476,0,0,0,2.36.785h18.85a5.963,5.963,0,0,0,2.36-.785,2.23,2.23,0,0,0,.78-1.572V585.306a3.678,3.678,0,0,0-.78-2.357,4.127,4.127,0,0,0-2.36-.786h-19.64a2.2,2.2,0,0,0-1.57.786A5.863,5.863,0,0,0,1034.59,585.306Zm-543.6-41.64,19.639,23.57V519.311Zm368.42-24.355-18.853,24.355,18.853,23.57V519.311Z"/>
</svg>
