<?xml version="1.0" encoding="UTF-8"?>
<svg
  id="b"
  xmlns="http://www.w3.org/2000/svg"
  xmlns:xlink="http://www.w3.org/1999/xlink"
  viewBox="0 0 32.34 23.2"
>
  <defs>
    <linearGradient
      id="i"
      x1="16.17"
      y1="22.95"
      x2="16.17"
      y2=".25"
      gradientUnits="userSpaceOnUse"
    >
      <stop offset="0" stop-color="#857004" />
      <stop offset=".11" stop-color="#9f8409" />
      <stop offset=".28" stop-color="#c09f0f" />
      <stop offset=".45" stop-color="#dbb415" />
      <stop offset=".62" stop-color="#eec419" />
      <stop offset=".81" stop-color="#f9cd1b" />
      <stop offset="1" stop-color="#fdd01c" />
    </linearGradient>
  </defs>
  <g id="c">
    <g id="f" filter="url(#d)">
      <g id="g">
        <g id="h">
          <path
            d="m16.17,22.95c-.08,0-8.19-.08-10.68-.32-.14-.02-.27-.04-.43-.06-.8-.1-2.13-.26-3.18-1.37-.98-1-1.3-3.18-1.31-3.27,0-.03-.32-2.6-.32-5.14v-2.4c0-2.54.31-5.11.32-5.14.01-.1.33-2.27,1.31-3.28,1.14-1.2,2.41-1.32,3.1-1.39l.19-.02c4.36-.32,10.93-.32,10.99-.32.08,0,6.65,0,11,.32l.21.02c.68.07,1.96.19,3.1,1.39.98,1,1.3,3.18,1.31,3.27,0,.03.32,2.6.32,5.14v2.4c0,2.54-.31,5.11-.32,5.14-.01.1-.33,2.27-1.32,3.28-1.13,1.2-2.41,1.32-3.09,1.39l-.2.02c-4.36.32-10.94.33-11,.33h0Zm-2.98-7.67l7.68-4.01-7.68-4.03v8.04Z"
            fill="url(#i)"
            fill-rule="evenodd"
            stroke-width="0"
          />
          <path
            d="m16.18.5s6.58,0,10.96.32c.61.07,1.95.08,3.14,1.34.94.96,1.25,3.13,1.25,3.13,0,0,.31,2.55.31,5.11v2.4c0,2.55-.31,5.11-.31,5.11,0,0-.31,2.17-1.25,3.13-1.19,1.26-2.53,1.26-3.14,1.34-4.39.32-10.97.33-10.97.33,0,0-8.15-.07-10.66-.32-.7-.13-2.26-.09-3.46-1.35-.94-.96-1.24-3.13-1.24-3.13,0,0-.31-2.55-.31-5.11v-2.4c0-2.55.31-5.11.31-5.11,0,0,.31-2.17,1.24-3.13,1.19-1.26,2.53-1.26,3.14-1.34,4.39-.32,10.96-.32,10.96-.32h.01m-3.24,15.19l8.47-4.42-8.47-4.45v8.87M16.18,0h-.01c-.07,0-6.65,0-11,.32l-.21.02c-.72.07-2.05.2-3.26,1.47C.66,2.87.33,5.12.32,5.22c-.01.11-.32,2.62-.32,5.18v2.4c0,2.56.3,5.06.32,5.17.01.1.34,2.36,1.38,3.42,1.11,1.17,2.5,1.34,3.33,1.44.15.02.28.03.39.05,2.54.25,10.41.32,10.74.33.07,0,6.66-.01,11.01-.33l.21-.02c.72-.07,2.05-.2,3.25-1.47,1.04-1.06,1.36-3.31,1.38-3.41.01-.11.32-2.62.32-5.18v-2.4c0-2.55-.3-5.06-.32-5.17-.01-.1-.34-2.36-1.39-3.42-1.2-1.26-2.53-1.39-3.25-1.46l-.19-.02C22.83,0,16.24,0,16.18,0h0Zm-2.74,14.87v-7.22s6.89,3.62,6.89,3.62l-6.89,3.6h0Z"
            fill="#fdd01c"
            stroke-width="0"
          />
        </g>
      </g>
    </g>
  </g>
</svg>